{"title":"The Bourne Legacy 2012 BRRip 720p x264 AAC ViZNU [P2PDL]","uid":7899643,"size":766159124,"categoryP":"video","categoryS":"hd___movies","magnet":"?xt=urn:btih:96d98500a49f0200a7ea11be2e852e7b88947437&amp;dn=The+Bourne+Legacy+2012+BRRip+720p+x264+AAC+ViZNU+%5BP2PDL%5D&amp;tr=udp%3A%2F%2Ftracker.openbittorrent.com%3A80&amp;tr=udp%3A%2F%2Fopen.demonii.com%3A1337&amp;tr=udp%3A%2F%2Ftracker.coppersurfer.tk%3A6969&amp;tr=udp%3A%2F%2Fexodus.desync.com%3A6969","seeders":4,"leechers":0,"uploader":"ValidusVyto","files":-1,"time":1354932702,"description":"The Bourne Legacy 2012 BRRip 720p x264 AAC ViZNU [P2PDL]\n\nTagline: There Was Never Just One. \n\nGenres: Action | Adventure | Mystery | Thriller\n\nRatings: 6.8/10 | http://www.imdb.com/title/tt1194173/ | http://cinemahouse.in/movie/197/\n\nPlot: An expansion of the universe from Robert Ludlum's novels, centered on a new hero whose stakes have been triggered by the events of the previous three films.\n\nDirector: Tony Gilroy\n\nStars: Jeremy Renner, Rachel Weisz and Edward Norton \n\nRated: Rated PG-13 for violence and action sequences.\n\n\nGeneral\nFormat                         : MPEG-4\nFormat profile                 : Base Media / Version 2\nCodec ID                       : mp42\nFile size                      : 725 MiB\nDuration                       : 2h 15mn\nMovie name                     : The Bourne Legacy 2012\n\nSource                         : 720p.BluRay.x264-SPARKS (Thanks)\n\nVideo\nID                             : 1\nFormat                         : AVC\nFormat/Info                    : Advanced Video Codec\nWidth                          : 1 280 pixels\nHeight                         : 532 pixels\nDisplay aspect ratio           : 2.40:1\nFrame rate mode                : Variable\nFrame rate                     : 23.976 fps\nColor space                    : YUV\nChroma subsampling             : 4:2:0\nBit depth                      : 8 bits\nScan type                      : Progressive\nBits/(Pixel*Frame)             : 0.041\nStream size                    : 642 MiB (89%)\nWriting library                : x264 core 128\n\nAudio\nID                             : 2\nFormat                         : AAC\nFormat/Info                    : Advanced Audio Codec\nFormat profile                 : LC\nCodec ID                       : 40\nDuration                       : 2h 15mn\nBit rate mode                  : Variable\nBit rate                       : 79.9 Kbps\nMaximum bit rate               : 123 Kbps\nChannel(s)                     : 2 channels\nChannel positions              : Front: L R\nSampling rate                  : 48.0 KHz\nCompression mode               : Lossy\nStream size                    : 77.2 MiB (11%)\nLanguage                       : English\n\nSubtitles                      : Yes (Muxed, English)\n\nScreens:\n &lt;a href=&quot;\nhttp://www.shotpix.com/images/55243507315002944041.jpg&quot; rel=&quot;nofollow&quot; target=&quot;_NEW&quot;&gt;\nhttp://www.shotpix.com/images/55243507315002944041.jpg&lt;/a&gt; &lt;a href=&quot;\nhttp://www.shotpix.com/images/41447974872907135243.jpg&quot; rel=&quot;nofollow&quot; target=&quot;_NEW&quot;&gt;\nhttp://www.shotpix.com/images/41447974872907135243.jpg&lt;/a&gt; &lt;a href=&quot;\nhttp://www.shotpix.com/images/01621075993454531404.jpg&quot; rel=&quot;nofollow&quot; target=&quot;_NEW&quot;&gt;\nhttp://www.shotpix.com/images/01621075993454531404.jpg&lt;/a&gt; &lt;a href=&quot;\nhttp://www.shotpix.com/images/95630075548638309602.jpg&quot; rel=&quot;nofollow&quot; target=&quot;_NEW&quot;&gt;\nhttp://www.shotpix.com/images/95630075548638309602.jpg&lt;/a&gt; &lt;a href=&quot;\nhttp://www.shotpix.com/images/11367311488352263652.jpg&quot; rel=&quot;nofollow&quot; target=&quot;_NEW&quot;&gt;\nhttp://www.shotpix.com/images/11367311488352263652.jpg&lt;/a&gt; &lt;a href=&quot;\nhttp://www.shotpix.com/images/50513911444286216170.jpg&quot; rel=&quot;nofollow&quot; target=&quot;_NEW&quot;&gt;\nhttp://www.shotpix.com/images/50513911444286216170.jpg&lt;/a&gt; &lt;a href=&quot;\nhttp://www.shotpix.com/images/58238605600237184198.jpg&quot; rel=&quot;nofollow&quot; target=&quot;_NEW&quot;&gt;\nhttp://www.shotpix.com/images/58238605600237184198.jpg&lt;/a&gt; &lt;a href=&quot;\nhttp://www.shotpix.com/images/62382022508786962653.jpg&quot; rel=&quot;nofollow&quot; target=&quot;_NEW&quot;&gt;\nhttp://www.shotpix.com/images/62382022508786962653.jpg&lt;/a&gt;\n\nThumbs:\n &lt;a href=&quot;\nhttp://www.shotpix.com/images/69559733904951447967.jpg&quot; rel=&quot;nofollow&quot; target=&quot;_NEW&quot;&gt;\nhttp://www.shotpix.com/images/69559733904951447967.jpg&lt;/a&gt;\n------------------------------------------------------------------------\n\n\nNotes:\n\n* Enhanced for best viewing experience.\n* Check sample to be sure.\n* Recommended to use latest version VLC Media Player.\n* Install updated shark007 codecs in case of any kind of problem in playback (For non-VLC Media Player users).\n* Alternatively, install Core AVC codecs, the fastest decoder that there is coupled with Community Center Codec Pack and play on Windows Media Player Classic.\n\n\nGreets to: Vitamin_X, a2zRG, staff members at ExtraTorrent, TPB, KAT, 1337x, PublicHD, Ahashare, TorrentMafia, BTScene, P2PDL, and all others\n\n\nEncoder Notes: Looking For Early Access To Anything You Can Provide DVDScr, R5, DVDRips, BluRay, Direct Audio, Early Music\nReleases, Seedboxes, Links, Dedicated Servers anything u can provide, Advance / Promo CDs/DVDs. If You Got anything to\noffer contact me at &quot;&lt;a class=&quot;__cf_email__&quot; href=&quot;/cdn-cgi/l/email-protection&quot; data-cfemail=&quot;6a1a180d2a021f190244090507&quot;&gt;[email&amp;#160;protected]&lt;/a&gt;&lt;script cf-hash='f9e31' type=&quot;text/javascript&quot;&gt;\n/* &lt;![CDATA[ */!function(){try{var t=&quot;currentScript&quot;in document?document.currentScript:function(){for(var t=document.getElementsByTagName(&quot;script&quot;),e=t.length;e--;)if(t[e].getAttribute(&quot;cf-hash&quot;))return t[e]}();if(t&amp;&amp;t.previousSibling){var e,r,n,i,c=t.previousSibling,a=c.getAttribute(&quot;data-cfemail&quot;);if(a){for(e=&quot;&quot;,r=parseInt(a.substr(0,2),16),n=2;a.length-n;n+=2)i=parseInt(a.substr(n,2),16)^r,e+=String.fromCharCode(i);e=document.createTextNode(e),c.parentNode.replaceChild(e,c)}}}catch(u){}}();/* ]]&gt; */&lt;/script&gt;&quot;\n\nFacebook Fan Page:","torrent":{"xt":"urn:btih:96d98500a49f0200a7ea11be2e852e7b88947437","amp;dn":"The+Bourne+Legacy+2012+BRRip+720p+x264+AAC+ViZNU+%5BP2PDL%5D","amp;tr":["udp%3A%2F%2Ftracker.openbittorrent.com%3A80","udp%3A%2F%2Fopen.demonii.com%3A1337","udp%3A%2F%2Ftracker.coppersurfer.tk%3A6969","udp%3A%2F%2Fexodus.desync.com%3A6969"],"infoHash":"96d98500a49f0200a7ea11be2e852e7b88947437","infoHashBuffer":{"type":"Buffer","data":[150,217,133,0,164,159,2,0,167,234,17,190,46,133,46,123,136,148,116,55]},"announce":[],"urlList":[]}}